#define 05_width 16
#define 05_height 16
static unsigned char 05_bits[] = {
   0x78, 0x78, 0x30, 0x30, 0x78, 0x78, 0xcc, 0xcc, 0x87, 0x87, 0x03, 0x03,
   0x87, 0x87, 0xcc, 0xcc, 0x78, 0x78, 0x30, 0x30, 0x78, 0x78, 0xcc, 0xcc,
   0x87, 0x87, 0x03, 0x03, 0x87, 0x87, 0xcc, 0xcc };
