#define 06_width 16
#define 06_height 16
static unsigned char 06_bits[] = {
   0x40, 0x40, 0x40, 0x40, 0x40, 0x40, 0x40, 0x40, 0x40, 0x40, 0x40, 0x40,
   0xff, 0xff, 0x40, 0x40, 0x40, 0x40, 0x40, 0x40, 0x40, 0x40, 0x40, 0x40,
   0x40, 0x40, 0x40, 0x40, 0xff, 0xff, 0x40, 0x40 };
