#define 07_width 16
#define 07_height 16
static unsigned char 07_bits[] = {
   0x88, 0x88, 0x22, 0x22, 0x88, 0x88, 0x22, 0x22, 0x88, 0x88, 0x22, 0x22,
   0x88, 0x88, 0x22, 0x22, 0x88, 0x88, 0x22, 0x22, 0x88, 0x88, 0x22, 0x22,
   0x88, 0x88, 0x22, 0x22, 0x88, 0x88, 0x22, 0x22 };
