<?xml version="1.0" encoding="UTF-8" standalone="no"?>
<!-- Created with Inkscape (http://www.inkscape.org/) -->

<svg
   xmlns:dc="http://purl.org/dc/elements/1.1/"
   xmlns:cc="http://creativecommons.org/ns#"
   xmlns:rdf="http://www.w3.org/1999/02/22-rdf-syntax-ns#"
   xmlns:svg="http://www.w3.org/2000/svg"
   xmlns="http://www.w3.org/2000/svg"
   xmlns:xlink="http://www.w3.org/1999/xlink"
   xmlns:sodipodi="http://sodipodi.sourceforge.net/DTD/sodipodi-0.dtd"
   xmlns:inkscape="http://www.inkscape.org/namespaces/inkscape"
   width="240"
   height="240"
   id="svg2"
   version="1.1"
   inkscape:version="0.48.3.1 r9886"
   sodipodi:docname="adhoc-logo-v2-000.svg">
  <defs
     id="defs4" />
  <sodipodi:namedview
     id="base"
     pagecolor="#ffffff"
     bordercolor="#666666"
     borderopacity="1.0"
     inkscape:pageopacity="0"
     inkscape:pageshadow="2"
     inkscape:zoom="3.53562"
     inkscape:cx="62.682331"
     inkscape:cy="119.52778"
     inkscape:document-units="px"
     inkscape:current-layer="layer6"
     showgrid="true"
     showguides="true"
     inkscape:guide-bbox="true"
     inkscape:snap-global="true"
     inkscape:snap-nodes="true"
     inkscape:snap-grids="false"
     inkscape:snap-to-guides="false"
     inkscape:object-paths="false"
     inkscape:window-width="1916"
     inkscape:window-height="1018"
     inkscape:window-x="0"
     inkscape:window-y="0"
     inkscape:window-maximized="1"
     fit-margin-top="0"
     fit-margin-left="0"
     fit-margin-right="0"
     fit-margin-bottom="0"
     showborder="false"
     inkscape:showpageshadow="false">
    <inkscape:grid
       type="xygrid"
       id="grid2985"
       empspacing="5"
       visible="true"
       enabled="true"
       snapvisiblegridlinesonly="true"
       originx="-200.32634px"
       originy="-600.47338px" />
    <sodipodi:guide
       position="-200.32634,-600.47338"
       orientation="0,744.09448"
       id="guide2987" />
    <sodipodi:guide
       position="543.76814,-600.47338"
       orientation="-1052.3622,0"
       id="guide2989" />
    <sodipodi:guide
       position="543.76814,451.88882"
       orientation="0,-744.09448"
       id="guide2991" />
    <sodipodi:guide
       position="-200.32634,451.88882"
       orientation="1052.3622,0"
       id="guide2993" />
    <sodipodi:guide
       orientation="0,1"
       position="289.67366,239.52662"
       id="guide2995" />
    <sodipodi:guide
       orientation="1,0"
       position="-0.326338,209.52662"
       id="guide3769" />
    <sodipodi:guide
       orientation="1,0"
       position="239.67366,59.526614"
       id="guide3781" />
    <sodipodi:guide
       orientation="0,1"
       position="119.67366,-0.47338597"
       id="guide3783" />
    <sodipodi:guide
       orientation="0,1"
       position="-20.326338,119.52662"
       id="guide3785" />
    <sodipodi:guide
       orientation="1,0"
       position="119.67366,159.52662"
       id="guide3787" />
    <sodipodi:guide
       orientation="1,0"
       position="179.67366,149.52662"
       id="guide3791" />
    <sodipodi:guide
       orientation="0,1"
       position="209.67366,59.526614"
       id="guide3793" />
    <sodipodi:guide
       orientation="1,0"
       position="89.673662,59.526614"
       id="guide3795" />
    <sodipodi:guide
       orientation="0,1"
       position="99.673662,89.526614"
       id="guide3797" />
  </sodipodi:namedview>
  <metadata
     id="metadata7">
    <rdf:RDF>
      <cc:Work
         rdf:about="">
        <dc:format>image/svg+xml</dc:format>
        <dc:type
           rdf:resource="http://purl.org/dc/dcmitype/StillImage" />
        <dc:title></dc:title>
      </cc:Work>
    </rdf:RDF>
  </metadata>
  <g
     inkscape:label="circle"
     inkscape:groupmode="layer"
     id="layer1"
     style="display:none"
     transform="translate(-200.32634,-211.88879)">
    <path
       sodipodi:open="true"
       sodipodi:end="6.800674"
       sodipodi:start="5.9306379"
       sodipodi:type="arc"
       style="fill:none;stroke:#000000;stroke-width:1.04347813;stroke-opacity:1;display:inline"
       id="path3109"
       sodipodi:cx="300"
       sodipodi:cy="352.36218"
       sodipodi:rx="100"
       sodipodi:ry="100"
       d="m 393.84962,317.83322 c 10.17478,27.65502 7.63429,58.38984 -6.94319,83.99888"
       transform="matrix(1.15,0,0,1.15,-25.00001,-72.85434)" />
    <path
       sodipodi:open="true"
       sodipodi:end="3.435849"
       sodipodi:start="3.2234852"
       transform="matrix(1.15,0,0,1.15,-25.00001,-72.85434)"
       d="m 200.33513,344.18208 c 0.5796,-7.06171 1.90808,-14.04182 3.96306,-20.82272"
       sodipodi:ry="100"
       sodipodi:rx="100"
       sodipodi:cy="352.36218"
       sodipodi:cx="300"
       id="path3111"
       style="fill:none;stroke:#000000;stroke-width:1.04347813;stroke-opacity:1;display:inline"
       sodipodi:type="arc" />
  </g>
  <g
     inkscape:groupmode="layer"
     id="layer3"
     inkscape:label="bezier"
     transform="translate(-200.32634,-211.88879)"
     style="display:none">
    <path
       style="fill:none;stroke:#000000;stroke-width:1px;stroke-linecap:butt;stroke-linejoin:miter;stroke-opacity:1"
       d="m 209.62558,299.96796 c 20.20006,-74.6006 94.85568,-69.52558 109.09466,-22.60578 33.30142,109.73376 144.28494,47.88965 98.35613,-15.55641 -44.27089,-63.7347 -166.54817,-77.31546 -207.45079,38.16219 z"
       id="path3817"
       inkscape:connector-curvature="0"
       sodipodi:nodetypes="cscc" />
    <path
       sodipodi:nodetypes="cscc"
       inkscape:connector-curvature="0"
       id="use3819"
       d="M 420.31488,388.635 C 386.48268,442.81379 307.19741,447.35833 290,360.62111 c -19.46167,-98.15727 -87.22448,-65.11808 -89.42438,-18.33339 0.59849,106.2027 146.61523,161.93312 219.73926,46.34728 z"
       style="fill:none;stroke:#000000;stroke-width:1px;stroke-linecap:butt;stroke-linejoin:miter;stroke-opacity:1" />
  </g>
  <g
     inkscape:groupmode="layer"
     id="layer2"
     inkscape:label="path"
     style="display:none"
     transform="translate(-0.926338,-0.12661233)">
    <path
       style="font-size:medium;font-style:normal;font-variant:normal;font-weight:normal;font-stretch:normal;text-indent:0;text-align:start;text-decoration:none;line-height:normal;letter-spacing:normal;word-spacing:normal;text-transform:none;direction:ltr;block-progression:tb;writing-mode:lr-tb;text-anchor:start;baseline-shift:baseline;color:#000000;fill:#000000;fill-opacity:1;stroke:none;stroke-width:1.04347813;marker:none;visibility:visible;display:inline;overflow:visible;enable-background:accumulate;font-family:Sans;-inkscape-font-specification:Sans"
       d="m 229.0953,80.688168 -1.11406,0.395312 c 11.64008,31.63771 8.69871,66.7998 -7.97813,96.09687 l 1.07813,0.61094 c 16.85139,-29.60372 19.77597,-65.13427 8.01406,-97.103122 z"
       id="path3012"
       inkscape:connector-curvature="0" />
    <path
       style="font-size:medium;font-style:normal;font-variant:normal;font-weight:normal;font-stretch:normal;text-indent:0;text-align:start;text-decoration:none;line-height:normal;letter-spacing:normal;word-spacing:normal;text-transform:none;direction:ltr;block-progression:tb;writing-mode:lr-tb;text-anchor:start;baseline-shift:baseline;color:#000000;fill:#000000;fill-opacity:1;stroke:none;stroke-width:1.04347813;marker:none;visibility:visible;display:inline;overflow:visible;enable-background:accumulate;font-family:Sans;-inkscape-font-specification:Sans"
       d="m 9.984365,87.085042 c -2.375555,7.838723 -3.929987,15.878858 -4.6,24.042188 l 1.1859375,0.10781 C 7.233358,103.15645 8.783466,95.165839 11.134365,87.40848 l -1.15,-0.323438 z"
       id="path3026"
       inkscape:connector-curvature="0" />
    <path
       style="font-size:medium;font-style:normal;font-variant:normal;font-weight:normal;font-stretch:normal;text-indent:0;text-align:start;text-decoration:none;line-height:normal;letter-spacing:normal;word-spacing:normal;text-transform:none;direction:ltr;block-progression:tb;writing-mode:lr-tb;text-anchor:start;baseline-shift:baseline;color:#000000;fill:#000000;fill-opacity:1;stroke:none;stroke-width:1px;marker:none;visibility:visible;display:inline;overflow:visible;enable-background:accumulate;font-family:Sans;-inkscape-font-specification:Sans"
       d="m 120.40625,1.09375 c -2.58547,0.019672 -5.16275,0.1196192 -7.75,0.3125 -31.993263,2.3851174 -63.728078,18.319495 -85.96875,52.125 -7.087308,8.726463 -12.982146,20.046676 -16.875,34.3125 -0.022554,0.06346 -0.039995,0.123964 -0.0625,0.1875 -0.00272,0.01003 0.00272,0.02121 0,0.03125 l 0.46875,0.15625 0.46875,0.15625 c 0.0033,-0.0094 -0.0033,-0.02189 0,-0.03125 l 0.03125,0 c 0.04496,-0.126833 0.07985,-0.24848 0.125,-0.375 C 15.441158,75.086414 21.097707,63.906025 27.5,54.15625 38.775492,40.274657 53.05088,33.180534 67.0625,31.84375 89.814834,29.673056 111.79332,42.517667 118.84375,65.75 c 8.35156,27.519778 21.59545,44.34331 36.09375,53.0625 14.4983,8.71919 30.22076,9.29296 43.4375,4.40625 13.21674,-4.88671 23.94967,-15.21591 28.46875,-28.375 4.51908,-13.159089 2.81091,-29.123503 -8.75,-45.09375 C 197.23531,19.721097 159.18826,0.79867626 120.40625,1.09375 z m 0,1 c 38.45076,-0.2880763 76.22948,18.527622 96.875,48.25 11.40349,15.752783 13.03852,31.304544 8.625,44.15625 -4.41352,12.85171 -14.92429,22.9929 -27.875,27.78125 -12.95071,4.78835 -28.32064,4.25247 -42.5625,-4.3125 -14.24186,-8.56497 -27.3571,-25.152898 -35.65625,-52.5 -7.18855,-23.687467 -29.658514,-36.836996 -52.84375,-34.625 -12.365105,1.179697 -24.863598,6.896057 -35.4375,17.5 21.77769,-29.617025 51.343999,-43.7126487 81.1875,-45.9375 2.56476,-0.1912041 5.12412,-0.2932949 7.6875,-0.3125 z"
       id="path3005"
       inkscape:connector-curvature="0" />
    <path
       style="font-size:medium;font-style:normal;font-variant:normal;font-weight:normal;font-stretch:normal;text-indent:0;text-align:start;text-decoration:none;line-height:normal;letter-spacing:normal;word-spacing:normal;text-transform:none;direction:ltr;block-progression:tb;writing-mode:lr-tb;text-anchor:start;baseline-shift:baseline;color:#000000;fill:#000000;fill-opacity:1;stroke:none;stroke-width:1px;marker:none;visibility:visible;display:inline;overflow:visible;enable-background:accumulate;font-family:Sans;-inkscape-font-specification:Sans"
       d="M 39.375,84.84375 C 19.419847,86.710674 1.7985041,106.87257 0.6875,130.5 l 0,0.0312 c 0.30053349,53.32999 37.114647,93.99778 83.03125,106.8125 45.9166,12.81472 100.96318,-2.26808 137.625,-60.21875 l -0.4375,-0.25 L 220.5,176.5937 c -16.82648,26.94588 -44.96034,41.53371 -70.9375,38.625 C 123.58534,212.31004 99.663622,191.97319 91.09375,148.75 86.216526,124.15114 78.304398,107.72598 69.09375,97.65625 59.883102,87.586517 49.352577,83.910288 39.375,84.84375 z m 0.09375,1 c 9.670822,-0.904763 19.837779,2.61987 28.875,12.5 9.037221,9.88013 16.927639,26.14523 21.78125,50.625 8.627538,43.51403 32.92087,64.29138 59.34375,67.25 20.53121,2.29892 42.21687,-6.22984 58.875,-22.875 -35.75477,43.6276 -83.65664,54.39521 -124.375,43.03125 C 38.455451,223.67284 1.9998582,183.41961 1.6875,130.5625 c -6.24e-5,-0.0106 5.95e-5,-0.0207 0,-0.0312 1.1030882,-23.14372 18.448341,-42.878791 37.78125,-44.6875 z"
       id="path3007"
       inkscape:connector-curvature="0" />
    <path
       style="fill:#000000;fill-opacity:1;stroke:#000000;stroke-opacity:1"
       d="m 177.02219,124.9575 c -17.69105,-1.61822 -33.92311,-13.14012 -45.19333,-32.079265 -4.2844,-7.199768 -7.67085,-14.911566 -11.36716,-25.885872 -1.14674,-3.404637 -2.73654,-7.506087 -3.5329,-9.114332 -4.70246,-9.496601 -11.7964,-16.74802 -21.138059,-21.607327 -15.316696,-7.967377 -33.643398,-7.65646 -49.542201,0.840495 -3.783636,2.022127 -11.588805,8.065049 -14.170971,10.49501 -1.801251,1.695076 1.651239,-1.957361 4.271588,-5.108803 7.509049,-9.03099 17.568253,-17.881133 27.24735,-23.972367 3.79397,-2.387616 12.904023,-6.99001 16.927185,-8.5516056 22.761518,-8.8349159 46.625738,-10.08313773 71.075508,-3.7176168 20.06428,5.2237544 38.31964,15.3358614 52.41361,29.0332204 12.89701,12.53408 20.32918,24.461928 23.16661,37.179967 0.49898,2.236552 0.60747,3.687049 0.61913,8.27787 0.0156,6.162172 -0.42361,8.972478 -2.18085,13.952635 -6.77144,19.190761 -27.62636,32.176081 -48.59551,30.257991 z"
       id="path3934"
       inkscape:connector-curvature="0"
       sodipodi:nodetypes="csssssssssssssscc" />
    <path
       style="fill:#000000;fill-opacity:1;stroke:#000000;stroke-width:1;stroke-opacity:1"
       d="M 103.50192,239.855 C 73.033455,236.57383 45.850318,222.19848 26.756465,199.26943 21.476024,192.92836 17.717187,187.19654 13.705221,179.3677 6.0691847,164.46696 2.0641002,148.44056 2.0421162,132.69764 2.0337034,126.67315 2.2924109,124.51422 3.5828717,119.83994 9.1291056,99.750461 26.616883,84.979431 43.680217,85.971761 c 15.952106,0.927706 28.981337,12.92914 38.084353,35.080119 3.214023,7.8209 5.119058,14.23755 7.90663,26.63156 1.023987,4.55283 2.37215,10.08421 2.995913,12.29195 8.327897,29.47566 25.929407,49.18184 49.038417,54.90209 5.56275,1.37696 7.64115,1.59869 14.88893,1.58835 7.11606,-0.0101 9.31523,-0.26049 15.19419,-1.72968 10.60375,-2.64996 21.57377,-8.26955 30.26274,-15.50264 1.53069,-1.27422 7.76536,-5.95467 10.42314,-9.36538 1.42687,-1.8311 -19.50152,19.52874 -22.76859,22.22918 -19.76647,16.33822 -40.7929,25.42539 -64.28111,27.78088 -5.2948,0.53099 -16.8908,0.51872 -21.92291,-0.0232 l 0,-10e-6 z"
       id="path3936"
       inkscape:connector-curvature="0"
       sodipodi:nodetypes="csssssssssssssssccc" />
    <path
       style="fill:#ee44ee;fill-opacity:1;stroke:#ee44ee;stroke-width:1;stroke-opacity:1"
       d="m 152.02736,215.28481 c -25.16092,-1.79818 -45.56446,-19.51994 -55.803381,-48.46877 -1.881502,-5.31964 -3.120228,-9.86108 -5.140751,-18.84715 -1.023704,-4.55283 -2.316119,-9.94772 -2.87203,-11.98864 C 83.049347,117.0295 75.03062,102.21249 65.480978,93.979326 58.067275,87.587649 50.95288,84.689958 42.702389,84.701609 c -4.079074,0.0058 -6.306943,0.308619 -9.890135,1.344466 C 23.857588,88.634737 15.465298,95.075918 9.4242497,103.99664 6.9855259,107.59787 6.9557104,107.56223 7.879148,102.14988 9.8987668,90.312704 12.842395,81.676051 19.016794,69.471844 25.136836,57.375078 28.892916,51.978978 34.941859,46.593405 46.7196,36.107296 60.859161,30.988064 75.37158,31.955815 c 17.721432,1.181741 32.89088,11.178425 40.40402,26.626306 0.77502,1.593513 2.43385,5.915865 3.68629,9.605226 2.79503,8.233392 4.89333,13.390791 7.72436,18.985703 10.22064,20.19882 24.64698,33.21735 41.72422,37.65253 4.62057,1.20002 6.69675,1.44087 12.37488,1.43557 6.00587,-0.006 8.72306,-0.37315 13.84402,-1.87261 8.05872,-2.35967 15.20349,-6.60384 21.10173,-12.53494 3.67076,-3.69121 6.36219,-7.38072 8.42832,-11.55383 2.28749,-4.620206 3.167,-7.467505 4.32041,-13.986742 l 0.202,-1.141775 0.67436,2.140828 c 1.81943,5.77595 3.64629,14.717949 4.43207,21.693729 0.56314,4.9993 0.47032,19.10098 -0.15971,24.26272 -1.71098,14.01786 -5.20028,25.74354 -11.36797,38.20161 -3.63475,7.34182 -6.01992,10.86968 -11.80456,17.45993 -15.5176,17.67869 -38.22542,27.83434 -58.92866,26.35474 z"
       id="path3938"
       inkscape:connector-curvature="0" />
  </g>
  <g
     inkscape:groupmode="layer"
     id="layer5"
     inkscape:label="symm-circle"
     style="display:none"
     transform="translate(-0.238838,0.46550597)">
    <path
       transform="matrix(1.15,0,0,1.15,-225.08751,-285.20864)"
       d="m 393.84962,317.83322 c 10.17478,27.65502 7.63429,58.38984 -6.94319,83.99888"
       sodipodi:ry="100"
       sodipodi:rx="100"
       sodipodi:cy="352.36218"
       sodipodi:cx="300"
       id="path3020"
       style="fill:none;stroke:#000000;stroke-width:1.04347813;stroke-opacity:1;display:inline"
       sodipodi:type="arc"
       sodipodi:start="5.9306379"
       sodipodi:end="6.800674"
       sodipodi:open="true" />
    <path
       sodipodi:type="arc"
       style="fill:none;stroke:#000000;stroke-width:1.04347813;stroke-opacity:1;display:inline"
       id="path3022"
       sodipodi:cx="300"
       sodipodi:cy="352.36218"
       sodipodi:rx="100"
       sodipodi:ry="100"
       d="m 205.77404,385.85051 c -7.15696,-20.13751 -7.67419,-42.03823 -1.47585,-62.49115"
       transform="matrix(1.15,0,0,1.15,-225.08751,-285.20864)"
       sodipodi:start="2.8001113"
       sodipodi:end="3.435849"
       sodipodi:open="true" />
  </g>
  <g
     inkscape:groupmode="layer"
     id="layer4"
     inkscape:label="symm-bezier"
     style="display:none"
     transform="translate(-0.238838,0.46550597)">
    <path
       transform="translate(-200.0875,-212.3543)"
       sodipodi:nodetypes="cscc"
       inkscape:connector-curvature="0"
       id="path3011"
       d="m 209.62558,299.96796 c 20.20006,-74.6006 94.85568,-69.52558 109.09466,-22.60578 33.30142,109.73376 144.28494,47.88965 98.35613,-15.55641 -44.27089,-63.7347 -166.54817,-77.31546 -207.45079,38.16219 z"
       style="fill:none;stroke:#000000;stroke-width:1px;stroke-linecap:butt;stroke-linejoin:miter;stroke-opacity:1;display:inline" />
    <use
       x="0"
       y="0"
       xlink:href="#path3011"
       id="use3017"
       transform="matrix(-1,0,0,-1,239.79527,240.01344)"
       width="236"
       height="241" />
  </g>
  <g
     inkscape:groupmode="layer"
     id="layer8"
     inkscape:label="fullcircle-color"
     style="display:none"
     transform="translate(-0.238838,0.46550597)">
    <path
       style="fill:#000000;fill-opacity:1;stroke:#000000;stroke-width:1;stroke-opacity:1"
       d="M 12.807154,172.2732 C 7.2541371,160.96541 3.4160159,148.32457 1.7466766,135.84553 0.17477923,124.09491 0.46786153,110.4367 2.5387051,98.935451 6.9921669,74.201387 19.057266,51.70163 37.289703,34.129603 56.170686,15.932521 80.720101,4.3852648 106.64759,1.5058805 c 4.70152,-0.52212898 13.03772,-0.80139828 17.53582,-0.587464 4.20425,0.1999585 4.18,0.2022508 -2.68694,0.2539944 -10.63399,0.080129 -16.93709,0.7529428 -25.879477,2.7624599 -15.705008,3.529202 -29.192266,9.8609582 -42.248698,19.8341572 -3.974225,3.035726 -9.387233,8.318826 -15.724014,15.346645 -2.31435,2.566735 -4.593755,5.08161 -5.065344,5.58861 -0.797733,0.857635 -0.824854,0.954398 -0.389505,1.389748 0.43535,0.435349 0.276747,0.668174 -2.277903,3.343883 -1.51021,1.581773 -3.397738,3.820099 -4.194508,4.974055 -4.999392,7.2406 -13.110698,23.920012 -15.618811,32.117222 -1.6987057,5.551841 -2.9326605,11.159387 -4.037043,18.345809 -0.5971592,3.88583 -0.6519383,5.16998 -0.6515211,15.27314 5.091e-4,11.99354 0.1028009,13.12147 2.2726297,25.05621 0.7095322,3.90265 2.7674104,12.62151 3.0443764,12.89848 0.07291,0.0729 0.379716,2.8e-4 0.681792,-0.16138 0.529175,-0.28321 0.554937,-0.14205 0.705572,3.86608 0.164664,4.38141 0.754856,7.70719 2.084057,11.74381 0.400232,1.21545 0.666474,2.27113 0.59165,2.34596 -0.07482,0.0748 -0.96698,-1.55602 -1.982569,-3.6241 l 0,0 z"
       id="path3987"
       inkscape:connector-curvature="0" />
    <path
       style="fill:#000000;fill-opacity:1;stroke:#000000;stroke-width:1;stroke-opacity:1"
       d="m 120.64796,238.78979 c 4.2779,-0.108 8.60528,-0.28362 9.61642,-0.39026 21.18842,-2.23469 39.26688,-9.36671 55.96978,-22.08028 5.80194,-4.4162 11.15179,-9.63138 21.62248,-21.0782 2.74878,-3.00503 2.94162,-3.28978 2.53355,-3.74091 -0.24294,-0.26856 -0.55197,-0.42014 -0.68674,-0.33685 -0.65847,0.40696 -0.11618,-0.45752 0.91011,-1.45085 3.08828,-2.98907 6.37478,-8.15778 11.02193,-17.33431 8.9989,-17.76974 12.42587,-30.93118 12.90681,-49.56928 0.29034,-11.25123 -0.6695,-20.13747 -3.34241,-30.944295 -1.32449,-5.355073 -2.26716,-8.060821 -2.80834,-8.060821 -0.40741,0 -0.48726,-0.595199 -0.63558,-4.7375 -0.17871,-4.991002 -0.72565,-8.31869 -2.06316,-12.552683 -0.39587,-1.253138 -0.66327,-2.334921 -0.59423,-2.403963 0.069,-0.06904 0.96555,1.584711 1.99224,3.675008 15.18163,30.909084 16.0165,67.695634 2.25716,99.455704 -6.48994,14.98045 -16.08198,28.55944 -28.04427,39.70095 -9.32561,8.68575 -18.33069,14.84859 -29.7453,20.35689 -16.63326,8.02666 -33.70277,11.86496 -52.18321,11.73408 l -6.50522,-0.0461 7.77798,-0.19637 0,0 z"
       id="path3989"
       inkscape:connector-curvature="0" />
  </g>
  <g
     inkscape:groupmode="layer"
     id="layer9"
     inkscape:label="fullcircle-color-white"
     style="display:inline">
    <path
       style="fill:#ffffff;fill-opacity:1;stroke:#ffffff;stroke-width:1;stroke-opacity:1"
       d="M 111.78263,239.35971 C 76.707789,236.94666 44.446245,219.25074 23.690226,191.03976 4.0454701,164.33918 -3.5575455,131.19687 2.4723289,98.548826 8.8523161,64.005136 30.682651,33.653846 61.579272,16.370884 85.73176,2.8604574 113.9967,-1.7856392 141.40236,3.2498336 c 15.47772,2.8438536 30.8523,9.0673864 44.20042,17.8920564 10.33707,6.834013 20.48051,16.287483 28.43424,26.500105 14.84197,19.05717 23.69208,43.13825 24.68711,67.173505 0.67171,16.22512 -1.58469,31.2798 -6.89775,46.02174 -17.04642,47.29811 -62.40592,79.03904 -112.40718,78.65847 -3.5001,-0.0266 -6.93655,-0.0878 -7.63657,-0.136 z"
       id="path3800"
       inkscape:connector-curvature="0" />
  </g>
  <g
     inkscape:groupmode="layer"
     id="layer6"
     inkscape:label="symm-color"
     style="display:inline"
     transform="translate(-0.238838,0.46550597)">
    <path
       style="fill:#000000;fill-opacity:1;stroke:#000000;stroke-width:1;stroke-opacity:1"
       d="m 176.7729,124.38974 c -20.29268,-1.68177 -38.20624,-16.00416 -49.79266,-39.810596 -2.60273,-5.347769 -4.4192,-9.912652 -7.13921,-17.941141 C 116.28691,56.147501 113.5313,51.211878 107.95965,45.357027 98.793958,35.725448 86.98317,30.513501 73.156807,29.99898 63.84049,29.652293 55.017079,31.612491 46.40654,35.941786 c -3.788805,1.904972 -9.069121,5.408086 -11.280842,7.484034 -0.507879,0.476699 -5.498601,5.017057 -1.102733,0.687411 0.566021,-0.557494 11.5481,-13.210832 16.698052,-17.441522 C 67.493936,12.892746 86.297731,4.9614817 108.40912,2.3394135 c 5.11312,-0.6063379 18.18177,-0.6925932 23.26366,-0.1535443 26.43822,2.8043656 49.94363,12.9981748 68.93468,29.8955518 5.46482,4.86235 9.31024,9.093874 14.13751,15.557012 6.98364,9.350243 10.38603,16.676226 11.98615,25.808403 0.61749,3.524147 0.61643,10.067158 -0.002,13.701302 -2.76729,16.255832 -15.30253,30.046082 -31.99025,35.193092 -3.79811,1.17146 -6.44181,1.68274 -10.5442,2.03923 -3.71069,0.32244 -3.64379,0.32236 -7.42154,0.009 l 6e-5,1e-5 z"
       id="path3082"
       inkscape:connector-curvature="0"
       sodipodi:nodetypes="cssssssssssssscssccc" />
    <path
       style="fill:#000000;fill-opacity:1;stroke:#000000;stroke-width:1;stroke-opacity:1"
       d="M 108.43804,237.86128 C 85.029136,235.41846 63.445464,227.01311 45.86838,213.49473 36.197624,206.05703 26.442084,195.46326 20.668526,186.12962 12.706449,173.25797 10.510989,159.74526 14.375637,147.39788 c 4.923574,-15.73061 18.767511,-27.63312 36.287234,-31.19846 3.899342,-0.79353 13.736951,-0.70452 17.721204,0.16035 8.198745,1.77971 15.75279,5.30811 22.298981,10.41558 2.529403,1.97349 7.928401,7.26172 10.250314,10.04001 7.11319,8.5113 13.09094,19.47907 17.42961,31.97926 0.81554,2.34965 2.06525,5.94195 2.77714,7.98287 4.45414,12.76967 12.69404,22.19471 24.56148,28.09415 6.55692,3.25952 13.13957,4.85175 21.03103,5.08703 7.25649,0.21634 12.42354,-0.52346 19.20338,-2.74949 6.23108,-2.04586 19.42503,-11.16164 23.95287,-15.25227 1.87233,-1.69154 -3.51441,3.59041 -6.08118,6.67792 -3.54769,4.26741 -11.62491,12.22468 -15.78831,15.55385 -16.52644,13.21499 -34.5939,20.79068 -55.80426,23.39874 -5.18578,0.63765 -18.78956,0.79433 -23.77709,0.27386 z"
       id="path3852"
       inkscape:connector-curvature="0"
       sodipodi:nodetypes="csssssssssssssssscc" />
    <path
       style="fill:#ee44ee;fill-opacity:1;stroke:#ee44ee;stroke-width:1;stroke-opacity:1"
       d="m 162.07255,208.43043 c -11.11143,-1.48577 -20.50518,-6.04525 -28.13804,-13.65748 -6.06088,-6.04449 -9.27634,-11.46235 -12.38997,-20.87637 -6.68496,-20.2119 -14.51999,-33.84926 -25.348711,-44.12102 -17.051148,-16.17415 -39.767498,-20.08529 -59.304285,-10.21059 -13.070347,6.6063 -22.428467,18.59541 -24.827788,31.80802 -0.782142,4.30711 -0.559336,7.14764 -1.022858,5.6751 C 9.1083298,150.90862 5.1964377,146.57825 2.768946,132.09511 0.00823965,115.6239 0.5242036,115.13759 2.0824605,106.00308 3.6283341,96.941152 3.6256042,94.115792 7.5749144,83.302472 11.597764,72.287799 16.509888,61.301999 25.27791,52.08028 31.826834,45.192484 40.263789,39.915516 49.661375,35.855043 c 14.979433,-6.472255 31.162167,-6.144454 44.655551,0.904555 4.807128,2.511266 7.565304,4.575349 11.810484,8.838398 6.22155,6.247721 8.94404,10.953917 12.54545,21.686551 2.7385,8.161038 4.40303,12.293733 7.42563,18.436373 15.64082,31.78586 42.3684,46.24537 69.65643,37.68384 7.48518,-2.34845 13.97571,-6.3601 19.83834,-12.26164 4.99783,-5.03099 8.47302,-10.48736 10.64662,-16.716165 0.89568,-2.566713 2.05563,-7.770234 2.05563,-9.221521 0,-0.475287 0.36251,-2.606407 0.13145,-0.732712 0.22688,0.226891 3.32436,6.878834 4.28687,10.062569 4.19076,13.861999 3.83607,10.903409 4.68458,25.438879 0.84371,14.45322 -1.35136,28.10562 -5.15589,39.80898 -3.60511,11.08988 -8.04584,17.72596 -14.63276,25.82745 -5.52244,6.79226 -11.32347,11.49023 -16.30173,14.94482 -11.45137,7.9465 -26.64874,9.55805 -39.23548,7.87501 z"
       id="path3080"
       inkscape:connector-curvature="0"
       sodipodi:nodetypes="cssssssssssssssssssscsssssc" />
  </g>
  <g
     inkscape:groupmode="layer"
     id="layer7"
     inkscape:label="fullcircle"
     transform="translate(-0.238838,0.46550597)"
     style="display:none">
    <path
       transform="matrix(1.2,0,0,1.1994698,-240.0875,-302.69295)"
       d="m 200.00458,353.31896 a 100,100 0 1 1 0.001,0.11471"
       sodipodi:ry="100"
       sodipodi:rx="100"
       sodipodi:cy="352.36218"
       sodipodi:cx="300"
       id="path3975"
       style="fill:none;stroke:#000000;stroke-width:1.00022089;stroke-opacity:1;display:inline"
       sodipodi:type="arc"
       sodipodi:start="3.1320247"
       sodipodi:end="9.4140629"
       sodipodi:open="true" />
  </g>
  <g
     inkscape:groupmode="layer"
     id="layer10"
     inkscape:label="fullcircle-white"
     style="display:inline">
    <path
       sodipodi:open="true"
       sodipodi:end="9.4140629"
       sodipodi:start="3.1320247"
       sodipodi:type="arc"
       style="fill:none;stroke:#ffffff;stroke-width:1.00022089;stroke-opacity:1;display:inline"
       id="path3821"
       sodipodi:cx="300"
       sodipodi:cy="352.36218"
       sodipodi:rx="100"
       sodipodi:ry="100"
       d="m 200.00458,353.31896 a 100,100 0 1 1 0.001,0.11471"
       transform="matrix(1.2,0,0,1.1994698,-240.32634,-302.22744)" />
  </g>
</svg>
