/* XPM */
static char *dummy[]={
"32 32 195 2",
"Qt c None",
"a2 c #00ffff",
".8 c #6fbfcf",
".i c #71b8c6",
"a4 c #75bacd",
"b# c #76b9ce",
"#p c #75bacd",
"#N c #74b9cc",
".c c #74b8cd",
"#O c #74b8ce",
".# c #73b8cd",
"ba c #75bbcf",
"aU c #76b9ce",
"aJ c #75b9ce",
"aB c #74b8cd",
".b c #75bacc",
".s c #74b9ce",
"aN c #75b9cd",
".h c #74b8ce",
"a6 c #74bacc",
"#g c #76b9ce",
".V c #76bacc",
".t c #74bacc",
"a8 c #75b8cc",
".C c #3a88a6",
".k c #3a88aa",
".e c #3a88ab",
".f c #3a88ac",
".n c #3b88ac",
"#. c #3b89ac",
"#Q c #3c89ac",
".o c #3c89ad",
".p c #3d89ac",
"aD c #3d89ad",
"#h c #3d8aac",
".x c #3e89ab",
"## c #3e8aac",
".q c #3f8aab",
"#r c #3f8aac",
"an c #3f8bab",
"am c #3f8caf",
"#i c #408baa",
".y c #408bab",
"#9 c #418baa",
".P c #418ca9",
".z c #428ca9",
".2 c #438ca8",
".G c #448ca8",
".A c #448da7",
"#B c #448da8",
"#T c #458da6",
".u c #458fa8",
".H c #468da6",
"aP c #468ea6",
"#2 c #4692b4",
".R c #478ea6",
"#U c #488ea6",
".I c #488fa6",
"#a c #498fa7",
".S c #4a8fa7",
"#t c #4b90a7",
"#k c #4b90a8",
"#b c #4c90a8",
".T c #4c91a8",
"#u c #4d91a8",
"a1 c #4d93ab",
"#l c #4e92a8",
"#c c #4e92a9",
".5 c #4f92a9",
"#D c #5092a9",
"#v c #5093a9",
"#R c #5095b5",
"#d c #5193a9",
".6 c #5293aa",
"#I c #5294aa",
"#E c #5394aa",
"#w c #5394ab",
"#m c #5494ab",
"#e c #5495ab",
".U c #5496ad",
"#J c #5595ab",
"#x c #5695ab",
"#f c #5796ac",
"#W c #5896ac",
"aV c #5897ac",
"#K c #5897ad",
"#y c #5997ad",
".l c #599bb1",
"a3 c #599cb2",
"#n c #5a97ad",
"aa c #5a98ad",
"#X c #5b98ad",
"#F c #5c98ae",
"#s c #5c9cb3",
"aY c #5ca2bb",
"#o c #5d99ae",
"a. c #5d9cb5",
".J c #5da2b7",
"ab c #5e99ae",
"#4 c #5e99af",
"#Y c #5e9aaf",
"#z c #5f9aaf",
".7 c #5fa0b6",
"#5 c #609aaf",
"aE c #609baf",
"#L c #609bb0",
"#G c #619bb0",
".g c #61a8c2",
"#H c #629bb0",
"ac c #639cb0",
"#Z c #639cb1",
".3 c #63a8be",
"#M c #649cb1",
"ah c #649db1",
"#6 c #659db1",
".X c #65a3b7",
"a7 c #65a3b8",
".Q c #65aabf",
"#0 c #669db1",
"ai c #669eb1",
"#7 c #679eb2",
"ad c #689fb2",
"#1 c #68a1b4",
"#8 c #699fb2",
"ak c #6a9fb2",
"af c #6a9fb3",
".K c #6ab0c8",
"ae c #6b9fb3",
"ay c #6ba0b3",
"#A c #6ba9be",
".d c #6bb1c7",
"ag c #6ca0b3",
".4 c #6cb1c5",
"aC c #6cb2cb",
"aG c #6da1b3",
"az c #6da1b4",
".r c #6db2c8",
"aj c #6ea1b4",
"al c #6fa2b4",
"#C c #6fa8bb",
"aK c #70a2b4",
"aH c #70a3b5",
"aA c #71a3b5",
".0 c #71aabc",
"aO c #71b5cd",
".F c #71b6ca",
"aQ c #72a3b5",
"aL c #72a4b5",
"aF c #73a4b5",
".B c #73b7cd",
"aS c #74a4b6",
"aM c #74a5b6",
".W c #74b8cd",
"#P c #74b8ce",
"aZ c #75a5b6",
"b. c #75b4c8",
"aI c #75b8cc",
".j c #75b9cd",
"#q c #75b9ce",
"aW c #76a5b6",
"aT c #76a6b6",
"aR c #76a7b7",
"a5 c #76b0c2",
"aX c #76b2c4",
"a9 c #76b9cd",
".a c #76bace",
"a0 c #77a6b6",
".O c #81b4c5",
"ao c #91bed0",
".M c #92bfcd",
"ap c #93bfcf",
"aq c #94bfce",
"ar c #95c0ce",
"as c #96c0ce",
".m c #9cc5d3",
"at c #a1c6d3",
"au c #a6c9d5",
"av c #aaccd7",
"aw c #b0cfdb",
".Y c #b2d3de",
"ax c #b4d2dd",
".E c #b4d4df",
"#S c #b9d7e3",
".9 c #bbd8e5",
"a# c #bcd8e2",
"#j c #bcd9e4",
".Z c #c6dfe8",
".1 c #cfe5ed",
".D c #d6eaf0",
".N c #d8ebf1",
".L c #e2f1f6",
"#3 c #eff9fd",
".v c #f1fbfe",
"#V c #f2fbfe",
".w c #f3fcff",
"QtQtQtQtQtQtQtQtQtQtQtQt.#.a.a.a.a.a.a.bQtQtQtQtQtQtQtQtQtQtQtQt",
"QtQtQtQtQtQtQtQtQt.c.a.a.d.e.e.e.e.e.f.g.a.a.hQtQtQtQtQtQtQtQtQt",
"QtQtQtQtQtQtQt.i.a.j.e.e.e.e.k.l.m.e.n.o.p.q.r.a.sQtQtQtQtQtQtQt",
"QtQtQtQtQtQt.t.a.e.e.e.u.v.w.w.w.w.w.w.m.x.y.z.A.a.aQtQtQtQtQtQt",
"QtQtQtQtQt.a.B.e.e.e.e.C.D.w.w.w.w.w.w.w.E.F.G.H.I.J.aQtQtQtQtQt",
"QtQtQtQt.a.K.e.e.e.e.e.e.w.w.L.M.N.O.w.w.P.j.Q.R.S.T.U.aQtQtQtQt",
"QtQtQt.V.W.e.e.e.e.e.e.e.w.w.X.Y.Z.0.1.w.2.3.4.S.T.5.6.7.aQtQtQt",
"QtQt.8.a.e.e.e.e.e.e.e.9.w.w#..o##.q.w.w.w.R#a#b#c#d#e#f.j#gQtQt",
"QtQt.a.e.e.e.e.e.e.e.e.w.w.w.o#h.q#i#j.w.w#a#k#l#d#m#f#n#o.aQtQt",
"Qt#p#q.e.e.e.e.e.e.e.e.w.w.w.p#r.y.z#s.w.w#t#u#v#w#x#y#o#z#A.aQt",
"Qt.a.e.e.e.e.e.e.e.e.f.w.w.w##.y.z#B#C.w.w#u#D#E#x#y#F#z#G#H.aQt",
"Qt.a.e.e.e.e.e.e.e.e.n.w.w.w.y.P.G.H.v.w.w.5#I#J#K#F#z#L#H#M.a#N",
"#O#P.e.e.e.e.e.e.e.n#Q#R.w.w#S.2#T#U.w.w#V.6#J#W#X#Y#L#H#Z#0#1.a",
".a#2.e.e.e.e.e.e.n#..o###3.w.w.w.w.w.w.w#d#e#f#X#4#5#H#Z#6#7#8.a",
".a.e.e.e.e.e.e.f#..o#h.q#9a..w.w.w.wa##d#m#faaab#z#Gac#6#7adae.a",
".a.e.e.e.e.e.f.n.o.p.q#i.z.A.R#a#t#l#v#w#x#y#o#z#Gac#6#7adafag.a",
".a.e.e.e.e.f.n.o.p.w.w.w.w.w.w.w.w.w.w.w.w.w.w#Gacahaiadafagaj.a",
".a.e.e.e.e.n.o.p##.w.w.w.w.w.w.w.w.w.w.w.w.w.w#H#Mai#7akagajal.a",
".aam.e.e.n#Q.p##anaoapaqaras.w.w.w.watauavawax#M#0#7#8ayazalaA.a",
"aBaC.e.n#.aD##.q#9.2#T.R.S.T.w.w.w.w#X#YaE#H#Z#6#7#8ayazalaAaF.a",
"Qt.a.f#..o#h.q#9.2#T.R#a#b#c.w.w.w.wab#z#H#Z#6#7#8ayaGalaHaFaIaJ",
"Qt.a.n.o.p.q#i.z.A.R#a#k#l#d.w.w.w.w#z#Gac#6#7adafagajaKaLaM.aQt",
"QtaNaO.p##.y.z.AaP.I#t#u#v#E.w.w.w.w#Gacah#7adafagajaKaQaMaR.aQt",
"QtQt.a##.y.z#B.H.I#t#u#D#E#x.w.w.w.w#HahaiadafagajalaQaSaT.aQtQt",
"QtQtaU.j.P.2.H.R.S.T.5#I#JaV.w.w.w.w#M#0#7#8ayazalaAaFaWaX.aQtQt",
"QtQtQt.aaY#T.R.S.T.5.6#J#W#X.w.w.w.w#0#7#8ayazalaAaFaZa0.aQtQtQt",
"QtQtQtQt.aa1.S#b#c#d#e#f#Xab.w.w.w.w#7#8ayaGalaAaFaZa0.aa2QtQtQt",
"QtQtQtQtQt.aa3#l#d#m#f#n#o#z.w.w.w.wadaeagajaHaLaZa0.aa4QtQtQtQt",
"QtQtQtQtQtQt.aaI#w#x#y#o#z#G.w.w.w.wafagajaKaLaMa5.aa2QtQtQtQtQt",
"QtQtQtQtQtQtQta6.aa7#F#z#Gac.w.w.w.wagajaKaQaM.a.aQtQtQtQtQtQtQt",
"QtQtQtQtQtQtQtQtQta8.aa9ac#Mai#7#8ayazalb..a.aQtQtQtQtQtQtQtQtQt",
"QtQtQtQtQtQtQtQtQtQtQtb#.a.a.a.a.a.a.a.abaQtQtQtQtQtQtQtQtQtQtQt"};
