<?xml version="1.0" encoding="utf-8"?>
<!-- Generator: Adobe Illustrator 16.1.0, SVG Export Plug-In . SVG Version: 6.00 Build 0)  -->
<!DOCTYPE svg PUBLIC "-//W3C//DTD SVG 1.1//EN" "http://www.w3.org/Graphics/SVG/1.1/DTD/svg11.dtd">
<svg version="1.1" id="Layer_1" xmlns="http://www.w3.org/2000/svg" xmlns:xlink="http://www.w3.org/1999/xlink" x="0px" y="0px"
	 width="48px" height="48px" viewBox="0 0 48 48" enable-background="new 0 0 48 48" xml:space="preserve">
<g>
	<path fill="#666666" d="M33.414,17.416c0.615,0.877,1.107,1.843,1.461,2.875c0.513,0.219,0.963,0.554,1.316,0.982
		c-0.37-1.656-1.07-3.186-2.027-4.523C33.945,17.01,33.695,17.232,33.414,17.416z"/>
	<path fill="#666666" d="M24.009,35.5c-0.003,0-0.006,0-0.009,0c-6.341,0-11.5-5.159-11.5-11.5c0-1.486,0.293-2.903,0.808-4.208
		c-0.32-0.115-0.617-0.28-0.887-0.48C11.832,20.761,11.5,22.342,11.5,24c0,6.893,5.607,12.5,12.5,12.5
		c0.052,0,0.103-0.007,0.155-0.008c-0.018-0.062-0.045-0.118-0.06-0.181C24.031,36.042,24.009,35.771,24.009,35.5z"/>
	<path fill="#666666" d="M35.209,26.536c-0.657,2.905-2.41,5.398-4.808,7.012c0.185,0.275,0.323,0.582,0.426,0.91
		c3.036-1.989,5.155-5.258,5.586-9.036C36.104,25.892,35.689,26.266,35.209,26.536z"/>
	<path fill="#666666" d="M17.425,14.579C19.29,13.272,21.555,12.5,24,12.5c1.486,0,2.904,0.293,4.209,0.809
		c0.081-0.222,0.184-0.438,0.31-0.643c0.054-0.087,0.122-0.159,0.183-0.241C27.248,11.833,25.663,11.5,24,11.5
		c-2.7,0-5.197,0.87-7.243,2.331C17.012,14.047,17.24,14.296,17.425,14.579z"/>
	<path fill="#666666" d="M24,31.499c-4.136,0-7.5-3.364-7.5-7.499s3.364-7.499,7.5-7.499c3.119,0,5.797,1.914,6.926,4.628
		c0.234-0.255,0.512-0.459,0.809-0.634c-1.338-2.94-4.299-4.994-7.734-4.994c-4.687,0-8.5,3.812-8.5,8.499s3.813,8.499,8.5,8.499
		c3.749,0,6.934-2.443,8.061-5.818c-0.318-0.144-0.611-0.331-0.871-0.56C30.271,29.226,27.398,31.499,24,31.499z"/>
	<circle fill="#333333" cx="24" cy="24" r="4.5"/>
	<path fill="#333333" d="M35.931,22.922c-0.109-0.461-0.345-0.858-0.655-1.173C34.813,21.281,34.178,21,33.501,21
		c-0.192,0-0.387,0.021-0.582,0.068c-0.302,0.072-0.573,0.202-0.816,0.367c-0.339,0.229-0.608,0.535-0.798,0.889
		c-0.279,0.52-0.385,1.136-0.236,1.755c0.073,0.307,0.203,0.584,0.371,0.83c0.23,0.336,0.535,0.608,0.889,0.797S33.082,26,33.497,26
		c0.191,0,0.386-0.022,0.58-0.068c0.567-0.135,1.033-0.459,1.37-0.883C35.908,24.469,36.115,23.697,35.931,22.922z"/>
	<path fill="#333333" d="M16.931,15.922c-0.063-0.267-0.171-0.512-0.308-0.732c-0.179-0.29-0.414-0.533-0.687-0.726
		C15.522,14.172,15.025,14,14.501,14c-0.192,0-0.387,0.021-0.582,0.068c-1.342,0.32-2.172,1.668-1.851,3.011
		c0.124,0.523,0.41,0.963,0.786,1.293c0.253,0.222,0.546,0.395,0.867,0.5C13.969,18.953,14.229,19,14.497,19
		c0.192,0,0.386-0.021,0.581-0.068C16.421,18.611,17.251,17.264,16.931,15.922z"/>
	<path fill="#333333" d="M29.94,34.995c-0.005-0.024-0.004-0.049-0.01-0.073c-0.075-0.316-0.212-0.601-0.388-0.853
		C29.08,33.409,28.32,33,27.501,33c-0.192,0-0.387,0.021-0.582,0.068c-1.13,0.27-1.888,1.27-1.909,2.381
		c-0.004,0.208,0.008,0.418,0.059,0.63c0.029,0.126,0.072,0.245,0.119,0.36C25.57,37.385,26.49,38,27.497,38
		c0.191,0,0.386-0.022,0.58-0.068C29.396,37.617,30.214,36.312,29.94,34.995z"/>
	<path fill="#333333" d="M33.931,13.922C33.658,12.773,32.633,12,31.501,12c-0.192,0-0.387,0.021-0.582,0.068
		c-0.522,0.125-0.964,0.408-1.294,0.784c-0.223,0.253-0.389,0.55-0.494,0.87c-0.139,0.425-0.174,0.89-0.062,1.356
		C29.342,16.228,30.366,17,31.497,17c0.191,0,0.386-0.021,0.58-0.068c0.267-0.063,0.507-0.178,0.729-0.314
		c0.29-0.179,0.536-0.41,0.728-0.683C33.933,15.369,34.104,14.647,33.931,13.922z"/>
	<path fill="#666666" d="M24,7.5C14.902,7.5,7.5,14.902,7.5,24S14.902,40.5,24,40.5c9.098,0,16.5-7.402,16.5-16.5S33.098,7.5,24,7.5
		z M29.004,38.655c-0.29,0.1-0.584,0.188-0.883,0.271C26.807,39.29,25.429,39.5,24,39.5c-8.547,0-15.5-6.953-15.5-15.5
		c0-3.272,1.025-6.307,2.763-8.811c0.384-0.554,0.81-1.073,1.26-1.57C15.361,10.484,19.448,8.5,24,8.5
		c3.271,0,6.303,1.024,8.807,2.761c0.557,0.386,1.079,0.813,1.579,1.267C37.518,15.365,39.5,19.45,39.5,24
		C39.5,30.794,35.1,36.567,29.004,38.655z"/>
</g>
</svg>
